HIERARCHY
ROOT pelvis
{
  OFFSET 0 100 0
  CHANNELS 6 Xposition Yposition Zposition Zrotation Xrotation Yrotation
  JOINT pelvis_right_femur
  {
    OFFSET -10.78128 -3.44521 -0.5502486
    CHANNELS 3 Zrotation Xrotation Yrotation
    JOINT right_femur_tibia
    {
      OFFSET -0.8047443 -44.0398 -0.1307829
      CHANNELS 3 Zrotation Xrotation Yrotation
      JOINT right_tibia_foot
      {
        OFFSET 3.006224 -47.83518 -5
        CHANNELS 3 Zrotation Xrotation Yrotation
        End Site
        {
          OFFSET 0 -5 15
        }
      }
    }
  }
  JOINT pelvis_left_femur
  {
    OFFSET 10.78128 -3.44521 -0.5502486
    CHANNELS 3 Zrotation Xrotation Yrotation
    JOINT left_femur_tibia
    {
      OFFSET 0.8047443 -44.0398 -0.1307829
      CHANNELS 3 Zrotation Xrotation Yrotation
      JOINT left_tibia_foot
      {
        OFFSET -4.370144 -48.10324 -4.275266
        CHANNELS 3 Zrotation Xrotation Yrotation
        End Site
        {
          OFFSET 0 -5 15
        }
      }
    }
  }
  JOINT pelvis_spine1
  {
    OFFSET 0 6.468898 -3.129235
    CHANNELS 3 Zrotation Xrotation Yrotation
    JOINT spine1
    {
      OFFSET 0 23.15396 4.99043
      CHANNELS 3 Zrotation Xrotation Yrotation
      JOINT spine2
      {
        OFFSET 0 20.79997 -5.064912
        CHANNELS 3 Zrotation Xrotation Yrotation
        JOINT neck
        {
          OFFSET 0 14.38658 9.616178
          CHANNELS 3 Zrotation Xrotation Yrotation
          End Site
          {
            OFFSET 0 20 0
          }
        }
      }
      JOINT right_manubrium
      {
        OFFSET -5.722621 16.35077 3.967754
        CHANNELS 3 Zrotation Xrotation Yrotation
        JOINT right_clavicle
        {
          OFFSET -13.16364 1.694482 -4.693211
          CHANNELS 3 Zrotation Xrotation Yrotation
          JOINT right_humerus
          {
            OFFSET -28.5034 -0.3100689 -2.792744
            CHANNELS 3 Zrotation Xrotation Yrotation
            JOINT right_radius
            {
              OFFSET -25.15693 0.02248979 -1.271978
              CHANNELS 3 Zrotation Xrotation Yrotation
              End Site
              {
                OFFSET -15 0 0
              }
            }
          }
        }
      }
      JOINT left_manubrium
      {
        OFFSET 5.722621 16.35077 3.967754
        CHANNELS 3 Zrotation Xrotation Yrotation
        JOINT left_clavicle
        {
          OFFSET 13.16364 1.694482 -4.693211
          CHANNELS 3 Zrotation Xrotation Yrotation
          JOINT left_humerus
          {
            OFFSET 29.39168 -1.063119 -2.237045
            CHANNELS 3 Zrotation Xrotation Yrotation
            JOINT left_radius
            {
              OFFSET 24.59957 -0.9528479 0.9047498
              CHANNELS 3 Zrotation Xrotation Yrotation
              End Site
              {
                OFFSET 15 -0 -0
              }
            }
          }
        }
      }
    }
  }
}
MOTION
Frames: 13
Frame Time: 0.0416666666667
0 103.5113 0 0.697301 -2.871473 0.01675474 2.95878 -12.00505 8.725359 -0 39.08335 -0 -7.833351 -17.65475 -5.121858 -5.817261 10.21358 -22.85514 -0 4.653758 -0 6.794417 -15.02955 25.74058 -1.725992 -2.249086 5.380157 2.821123 9.686292 -7.897211 0.6636337 20.50367 6.739879 3.958567 -25.93237 7.845573 5.794749 -20.04552 11.55432 85.69516 35.10215 -19.88388 -0 0 16.26039 -5.639212 5.221988 4.467351 6.47953 -21.08492 -1.297121 -95.03862 25.43692 24.73768 0 0 -17.0043 8.547988 13.15729 4.639063
0.2658534 103.4966 1.560128 0.6081211 -2.151642 0.04174615 3.43962 -14.40048 9.29451 -0 38.93075 -0 -6.945537 -18.19628 -5.236894 -5.944735 10.89666 -23.12747 -0 4.475034 -0 6.642676 -16.05295 25.68699 -1.711545 -2.274494 5.391494 2.824499 9.665369 -7.922389 0.6610391 20.51299 6.717114 3.961698 -25.95278 7.817285 5.799971 -20.09147 11.53843 85.74319 35.05664 -20.01512 -0 0 16.33572 -5.450523 5.064205 4.356361 6.474968 -21.10199 -1.309455 -95.20902 25.69639 24.93444 0 0 -17.05292 8.339469 13.23907 4.938307
0.5082241 103.39 3.229173 0.6082689 -1.624684 0.07491213 3.809036 -17.68596 8.341187 -0 36.33675 -0 -7.069662 -14.49784 -4.059057 -6.3241 11.87769 -22.9292 -0 5.380692 -0 6.28693 -18.09045 25.68894 -1.726366 -2.216709 5.248577 2.864234 9.690042 -7.980211 0.6775763 20.5082 6.839861 3.902389 -26.00678 8.003222 5.749216 -19.81491 11.55753 86.04828 35.22287 -20.24048 -0 0 15.65851 -5.99276 5.688516 4.643728 6.459641 -21.20323 -1.289169 -94.58061 25.57085 24.0997 0 0 -17.7194 8.447842 13.09044 4.859354
0.7387885 103.1787 5.039549 0.4901052 -0.917588 0.1315087 4.326147 -20.81964 7.745503 -0 33.66238 -0 -6.966275 -12.21429 -3.302427 -6.511587 12.50366 -22.49697 -0 5.799707 -0 6.03894 -19.6683 25.35047 -1.722026 -2.211422 5.139667 2.924219 9.691189 -8.077069 0.6859173 20.49372 6.906129 3.858112 -26.11447 8.122718 5.72273 -19.63968 11.5623 86.36997 35.2984 -20.62472 -0 0 15.18412 -6.105041 5.942658 4.704069 6.462154 -21.32609 -1.276977 -94.22753 25.67791 23.58692 0 0 -18.35158 8.440123 13.04144 4.947556
0.9623573 102.8368 7.069266 0.2779967 0.0558523 0.2380767 4.981137 -24.30538 7.266593 -0 30.45457 -0 -6.658722 -10.30174 -2.644024 -6.616696 13.03975 -21.85598 -0 6.025017 -0 5.624997 -21.23407 24.66498 -1.718133 -2.195196 5.006613 2.98564 9.69745 -8.185793 0.6957832 20.48352 6.993585 3.804667 -26.21624 8.267645 5.685605 -19.41977 11.56843 86.75723 35.39791 -21.0617 -0 0 14.59468 -6.337126 6.320448 4.818926 6.45553 -21.47157 -1.271375 -93.7781 25.79981 22.94961 0 0 -19.1067 8.391425 12.97724 5.102459
1.184683 102.3578 9.407736 -0.01832998 1.166636 0.4157059 5.708357 -27.68077 6.89477 -0 27.02187 -0 -6.253659 -8.755159 -2.118785 -6.618981 13.44892 -21.01538 -0 6.262219 -0 5.034864 -22.531 23.62357 -1.710145 -2.188461 4.871478 3.055166 9.701949 -8.310912 0.7034442 20.47006 7.075599 3.752083 -26.33266 8.40612 5.651403 -19.20632 11.57326 87.17674 35.4842 -21.56176 -0 0 14.00613 -6.50478 6.65261 4.897121 6.45198 -21.63469 -1.269933 -93.34851 25.96629 22.33033 0 0 -19.90306 8.319994 12.92716 5.295067
1.411501 101.7565 12.16262 -0.4039273 2.40138 0.6840994 6.497335 -30.85548 6.627987 -0 23.49619 -0 -5.770766 -7.459866 -1.70995 -6.523674 13.77738 -19.99262 -0 6.754459 -0 4.170123 -23.48873 22.1709 -1.701707 -2.178197 4.727969 3.124356 9.710651 -8.442737 0.7100624 20.45834 7.164602 3.698067 -26.44102 8.548615 5.614067 -18.97873 11.57912 87.62589 35.57569 -22.08866 -0 0 13.37815 -6.722175 7.030831 4.994528 6.444325 -21.81118 -1.276167 -92.88413 26.1376 21.66857 0 0 -20.74378 8.224634 12.87275 5.522748
1.648841 101.0706 15.4406 -0.8637476 3.622163 1.051279 7.283169 -33.49023 6.415761 -0 20.17594 -0 -5.350834 -6.301844 -1.411649 -6.331104 14.02859 -18.81661 -0 7.859795 -0 3.046572 -23.90406 20.33873 -1.693961 -2.163801 4.586058 3.187505 9.724238 -8.570905 0.7150123 20.44904 7.255198 3.646694 -26.53025 8.685016 5.576198 -18.75136 11.58626 88.07094 35.66764 -22.59977 -0 0 12.75318 -6.985812 7.436459 5.110168 6.43296 -21.98833 -1.290425 -92.41123 26.29067 21.00402 0 0 -21.56636 8.117384 12.81435 5.760771
1.903787 100.3721 19.33791 -1.379776 4.678246 1.50866 8.013877 -35.27146 6.213915 -0 17.38657 -0 -5.144019 -5.209037 -1.227088 -6.04175 14.18568 -17.51485 -0 10.0293 -0 1.748125 -23.55904 18.19912 -1.688991 -2.139386 4.453697 3.234219 9.744598 -8.681024 0.7182627 20.44642 7.347112 3.600961 -26.57847 8.80902 5.537682 -18.53094 11.59485 88.47828 35.76295 -23.04122 -0 0 12.15895 -7.340019 7.887716 5.265439 6.414133 -22.15124 -1.31541 -91.94112 26.4032 20.36051 0 0 -22.31307 7.99223 12.74817 6.00771
2.184189 99.77247 23.91422 -1.911469 5.380702 2.022695 8.62179 -35.85038 5.96937 -0 15.47776 -0 -5.322153 -4.147806 -1.149436 -5.661994 14.16716 -16.13436 -0 13.74465 -0 0.4347283 -22.25207 15.9117 -1.688407 -2.101209 4.34371 3.253016 9.771483 -8.756274 0.7197092 20.45507 7.436269 3.565422 -26.56475 8.909767 5.500086 -18.33304 11.60396 88.80281 35.85995 -23.35187 -0 0 11.64568 -7.806466 8.378349 5.470952 6.385072 -22.28015 -1.352797 -91.5084 26.4637 19.79129 0 0 -22.90646 7.838408 12.67584 6.267213
2.49682 99.42219 29.16818 -2.399977 5.571821 2.535504 9.043357 -34.93922 5.643982 -0 14.67528 -0 -6.006633 -3.148705 -1.14278 -5.201408 13.78561 -14.73405 -0 19.40016 -0 -0.7630782 -19.88639 13.6641 -1.693489 -2.045301 4.26875 3.231532 9.803633 -8.779727 0.7195092 20.48082 7.519535 3.544347 -26.46798 8.977489 5.464375 -18.1724 11.61198 89.00177 35.95712 -23.47411 -0 0 11.26125 -8.410619 8.90413 5.73868 6.342194 -22.35522 -1.404557 -91.14924 26.47425 19.35137 0 0 -23.27593 7.632404 12.60063 6.561216
2.842063 99.48501 35.00862 -2.769416 5.172137 2.9732 9.216742 -32.36973 5.223364 -0 14.9181 -0 -7.200369 -2.326394 -1.129756 -4.670328 12.72109 -13.38528 -0 27.08252 -0 -1.852523 -16.56341 11.63999 -1.705016 -1.968401 4.241188 3.157959 9.838891 -8.735402 0.7182189 20.5293 7.594047 3.541348 -26.26991 9.00404 5.430949 -18.06328 11.61712 89.03581 36.0512 -23.35619 -0 0 11.05142 -9.17424 9.458811 6.07914 6.282037 -22.35722 -1.471965 -90.89953 26.44517 19.09469 0 0 -23.36068 7.346119 12.52636 6.919361
3.205504 100.0788 41.2379 -2.939507 4.212365 3.261448 9.092748 -28.16787 4.728866 -0 15.72384 -0 -8.717644 -1.893293 -1.018637 -4.075881 10.56839 -12.15128 -0 36.33275 -0 -3.022429 -12.64686 10.01687 -1.723496 -1.866881 4.271458 3.021676 9.875689 -8.608889 0.7171759 20.6046 7.658369 3.558083 -25.95423 8.985246 5.398412 -18.01563 11.61847 88.87233 36.13739 -22.95204 -0 0 11.0514 -10.12703 10.04636 6.508093 6.201073 -22.26885 -1.555571 -90.78136 26.3808 19.05781 0 0 -23.11775 6.95591 12.45198 7.366532
